<svg width="13" height="14" viewBox="0 0 13 14" fill="none" xmlns="http://www.w3.org/2000/svg">
<path d="M5.66578 3.52083L1.58245 7.60417C1.41578 7.77083 1.22134 7.85069 0.999115 7.84375C0.776892 7.83681 0.582448 7.75 0.415781 7.58333C0.263003 7.41667 0.183142 7.22222 0.176198 7C0.169253 6.77778 0.249115 6.58333 0.415781 6.41667L5.91578 0.916667C5.99911 0.833333 6.08939 0.774306 6.18661 0.739583C6.28384 0.704861 6.388 0.6875 6.49911 0.6875C6.61023 0.6875 6.71439 0.704861 6.81161 0.739583C6.90884 0.774306 6.99911 0.833333 7.08245 0.916667L12.5824 6.41667C12.7352 6.56944 12.8116 6.76042 12.8116 6.98958C12.8116 7.21875 12.7352 7.41667 12.5824 7.58333C12.4158 7.75 12.2179 7.83333 11.9887 7.83333C11.7595 7.83333 11.5616 7.75 11.3949 7.58333L7.33245 3.52083V12.8333C7.33245 13.0694 7.25259 13.2674 7.09286 13.4271C6.93314 13.5868 6.73523 13.6667 6.49911 13.6667C6.263 13.6667 6.06509 13.5868 5.90536 13.4271C5.74564 13.2674 5.66578 13.0694 5.66578 12.8333V3.52083Z" fill="white"/>
</svg>
