<svg width="25" height="24" viewBox="0 0 25 24" fill="none" xmlns="http://www.w3.org/2000/svg">
<path d="M18.6158 3.69207L18.6158 20.3075C18.6153 20.7969 18.4207 21.2662 18.0746 21.6124C17.7285 21.9585 17.2592 22.1531 16.7697 22.1536L13.0774 22.1536C12.5879 22.1531 12.1186 21.9585 11.7725 21.6124C11.4264 21.2662 11.2317 20.7969 11.2312 20.3075L11.2312 3.69207C11.2317 3.20259 11.4264 2.7333 11.7725 2.38719C12.1186 2.04107 12.5879 1.84641 13.0774 1.84592L16.7697 1.84592C17.2592 1.84641 17.7285 2.04107 18.0746 2.38719C18.4207 2.7333 18.6153 3.20259 18.6158 3.69207ZM13.0774 20.3075L16.7697 20.3075L16.7697 3.69207L13.0774 3.69207L13.0774 20.3075ZM13.0774 3.69207L13.0774 20.3075C13.0769 20.7969 12.8822 21.2662 12.5361 21.6123C12.19 21.9584 11.7207 22.1531 11.2312 22.1536L7.53891 22.1536C7.04943 22.1531 6.58014 21.9584 6.23402 21.6123C5.88791 21.2662 5.69325 20.7969 5.69276 20.3074L5.69276 3.69206C5.69325 3.20258 5.88791 2.73328 6.23402 2.38717C6.58014 2.04105 7.04943 1.84639 7.53891 1.8459L11.2312 1.8459C11.7207 1.84639 12.19 2.04105 12.5361 2.38717C12.8822 2.73328 13.0769 3.20259 13.0774 3.69207ZM7.53891 20.3074L11.2312 20.3075L11.2312 3.69207L7.53891 3.69206L7.53891 20.3074ZM7.53891 3.69206L7.53891 20.3074C7.53842 20.7969 7.34376 21.2662 6.99765 21.6123C6.65153 21.9584 6.18224 22.1531 5.69276 22.1536L2.00045 22.1536C1.51097 22.1531 1.04168 21.9584 0.695563 21.6123C0.349447 21.2662 0.154786 20.7969 0.154297 20.3074L0.154296 3.69206C0.154785 3.20258 0.349447 2.73328 0.695562 2.38717C1.04168 2.04105 1.51097 1.84639 2.00045 1.8459L5.69276 1.8459C6.18224 1.84639 6.65153 2.04105 6.99765 2.38717C7.34376 2.73328 7.53842 3.20258 7.53891 3.69206ZM2.00045 20.3074L5.69276 20.3074L5.69276 3.69206L2.00045 3.69206L2.00045 20.3074Z" fill="#4589ff"/>
<path d="M24.1543 3.69228L24.1543 20.3077C24.1538 20.7971 23.9591 21.2664 23.613 21.6125C23.2669 21.9587 22.7976 22.1533 22.3081 22.1538L18.6158 22.1538C18.1264 22.1533 17.6571 21.9587 17.3109 21.6125C16.9648 21.2664 16.7702 20.7969 16.7697 20.3075L16.7697 3.69207C16.7702 3.20259 16.9648 2.7335 17.3109 2.38739C17.6571 2.04127 18.1264 1.84661 18.6158 1.84612L22.3081 1.84612C22.7976 1.84661 23.2669 2.04127 23.613 2.38739C23.9591 2.7335 24.1538 3.2028 24.1543 3.69228ZM18.6158 20.3075L22.3081 20.3077L22.3081 3.69228L18.6158 3.69207L18.6158 20.3075Z" fill="#4589ff"/>
</svg>
