<svg width="25" height="24" viewBox="0 0 25 24" fill="none" xmlns="http://www.w3.org/2000/svg">
<mask id="mask0_57236_2913" style="mask-type:alpha" maskUnits="userSpaceOnUse" x="0" y="0" width="25" height="24">
<rect x="0.154297" width="24" height="24" fill="#D9D9D9"/>
</mask>
<g mask="url(#mask0_57236_2913)">
<path d="M7.1543 21C6.6043 21 6.13346 20.8042 5.7418 20.4125C5.35013 20.0208 5.1543 19.55 5.1543 19V6C4.87096 6 4.63346 5.90417 4.4418 5.7125C4.25013 5.52083 4.1543 5.28333 4.1543 5C4.1543 4.71667 4.25013 4.47917 4.4418 4.2875C4.63346 4.09583 4.87096 4 5.1543 4H9.1543C9.1543 3.71667 9.25013 3.47917 9.4418 3.2875C9.63346 3.09583 9.87096 3 10.1543 3H14.1543C14.4376 3 14.6751 3.09583 14.8668 3.2875C15.0585 3.47917 15.1543 3.71667 15.1543 4H19.1543C19.4376 4 19.6751 4.09583 19.8668 4.2875C20.0585 4.47917 20.1543 4.71667 20.1543 5C20.1543 5.28333 20.0585 5.52083 19.8668 5.7125C19.6751 5.90417 19.4376 6 19.1543 6V19C19.1543 19.55 18.9585 20.0208 18.5668 20.4125C18.1751 20.8042 17.7043 21 17.1543 21H7.1543ZM7.1543 6V19H17.1543V6H7.1543ZM9.1543 16C9.1543 16.2833 9.25013 16.5208 9.4418 16.7125C9.63346 16.9042 9.87096 17 10.1543 17C10.4376 17 10.6751 16.9042 10.8668 16.7125C11.0585 16.5208 11.1543 16.2833 11.1543 16V9C11.1543 8.71667 11.0585 8.47917 10.8668 8.2875C10.6751 8.09583 10.4376 8 10.1543 8C9.87096 8 9.63346 8.09583 9.4418 8.2875C9.25013 8.47917 9.1543 8.71667 9.1543 9V16ZM13.1543 16C13.1543 16.2833 13.2501 16.5208 13.4418 16.7125C13.6335 16.9042 13.871 17 14.1543 17C14.4376 17 14.6751 16.9042 14.8668 16.7125C15.0585 16.5208 15.1543 16.2833 15.1543 16V9C15.1543 8.71667 15.0585 8.47917 14.8668 8.2875C14.6751 8.09583 14.4376 8 14.1543 8C13.871 8 13.6335 8.09583 13.4418 8.2875C13.2501 8.47917 13.1543 8.71667 13.1543 9V16Z" fill="#4589FF"/>
</g>
</svg>
