<svg width="16" height="18" viewBox="0 0 16 18" fill="none" xmlns="http://www.w3.org/2000/svg">
<path d="M2.99951 18C2.44951 18 1.97868 17.8042 1.58701 17.4125C1.19535 17.0208 0.999512 16.55 0.999512 16V3C0.716178 3 0.478678 2.90417 0.287012 2.7125C0.0953451 2.52083 -0.000488281 2.28333 -0.000488281 2C-0.000488281 1.71667 0.0953451 1.47917 0.287012 1.2875C0.478678 1.09583 0.716178 1 0.999512 1H4.99951C4.99951 0.716667 5.09535 0.479167 5.28701 0.2875C5.47868 0.0958333 5.71618 0 5.99951 0H9.99951C10.2828 0 10.5203 0.0958333 10.712 0.2875C10.9037 0.479167 10.9995 0.716667 10.9995 1H14.9995C15.2828 1 15.5203 1.09583 15.712 1.2875C15.9037 1.47917 15.9995 1.71667 15.9995 2C15.9995 2.28333 15.9037 2.52083 15.712 2.7125C15.5203 2.90417 15.2828 3 14.9995 3V16C14.9995 16.55 14.8037 17.0208 14.412 17.4125C14.0203 17.8042 13.5495 18 12.9995 18H2.99951ZM2.99951 3V16H12.9995V3H2.99951ZM4.99951 13C4.99951 13.2833 5.09535 13.5208 5.28701 13.7125C5.47868 13.9042 5.71618 14 5.99951 14C6.28285 14 6.52035 13.9042 6.71201 13.7125C6.90368 13.5208 6.99951 13.2833 6.99951 13V6C6.99951 5.71667 6.90368 5.47917 6.71201 5.2875C6.52035 5.09583 6.28285 5 5.99951 5C5.71618 5 5.47868 5.09583 5.28701 5.2875C5.09535 5.47917 4.99951 5.71667 4.99951 6V13ZM8.99951 13C8.99951 13.2833 9.09535 13.5208 9.28701 13.7125C9.47868 13.9042 9.71618 14 9.99951 14C10.2828 14 10.5203 13.9042 10.712 13.7125C10.9037 13.5208 10.9995 13.2833 10.9995 13V6C10.9995 5.71667 10.9037 5.47917 10.712 5.2875C10.5203 5.09583 10.2828 5 9.99951 5C9.71618 5 9.47868 5.09583 9.28701 5.2875C9.09535 5.47917 8.99951 5.71667 8.99951 6V13Z" fill="#4589FF"/>
</svg>
