<svg width="25" height="24" viewBox="0 0 25 24" fill="none" xmlns="http://www.w3.org/2000/svg">
<mask id="mask0_57236_959" style="mask-type:alpha" maskUnits="userSpaceOnUse" x="0" y="0" width="25" height="24">
<rect x="0.654297" width="24" height="24" fill="#D9D9D9"/>
</mask>
<g mask="url(#mask0_57236_959)">
<path d="M10.1543 16C8.33763 16 6.80013 15.3708 5.5418 14.1125C4.28346 12.8542 3.6543 11.3167 3.6543 9.5C3.6543 7.68333 4.28346 6.14583 5.5418 4.8875C6.80013 3.62917 8.33763 3 10.1543 3C11.971 3 13.5085 3.62917 14.7668 4.8875C16.0251 6.14583 16.6543 7.68333 16.6543 9.5C16.6543 10.2333 16.5376 10.925 16.3043 11.575C16.071 12.225 15.7543 12.8 15.3543 13.3L20.9543 18.9C21.1376 19.0833 21.2293 19.3167 21.2293 19.6C21.2293 19.8833 21.1376 20.1167 20.9543 20.3C20.771 20.4833 20.5376 20.575 20.2543 20.575C19.971 20.575 19.7376 20.4833 19.5543 20.3L13.9543 14.7C13.4543 15.1 12.8793 15.4167 12.2293 15.65C11.5793 15.8833 10.8876 16 10.1543 16ZM10.1543 14C11.4043 14 12.4668 13.5625 13.3418 12.6875C14.2168 11.8125 14.6543 10.75 14.6543 9.5C14.6543 8.25 14.2168 7.1875 13.3418 6.3125C12.4668 5.4375 11.4043 5 10.1543 5C8.9043 5 7.8418 5.4375 6.9668 6.3125C6.0918 7.1875 5.6543 8.25 5.6543 9.5C5.6543 10.75 6.0918 11.8125 6.9668 12.6875C7.8418 13.5625 8.9043 14 10.1543 14Z" fill="#1C1B1F"/>
</g>
</svg>
