<svg width="25" height="24" viewBox="0 0 25 24" fill="none" xmlns="http://www.w3.org/2000/svg">
<mask id="mask0_57236_2908" style="mask-type:alpha" maskUnits="userSpaceOnUse" x="0" y="0" width="25" height="24">
<rect x="0.654297" width="24" height="24" fill="#D9D9D9"/>
</mask>
<g mask="url(#mask0_57236_2908)">
<path d="M5.6543 19H7.0543L15.6793 10.375L14.2793 8.975L5.6543 17.6V19ZM19.9543 8.925L15.7043 4.725L17.1043 3.325C17.4876 2.94167 17.9585 2.75 18.5168 2.75C19.0751 2.75 19.546 2.94167 19.9293 3.325L21.3293 4.725C21.7126 5.10833 21.9126 5.57083 21.9293 6.1125C21.946 6.65417 21.7626 7.11667 21.3793 7.5L19.9543 8.925ZM18.5043 10.4L7.9043 21H3.6543V16.75L14.2543 6.15L18.5043 10.4Z" fill="#4589FF"/>
</g>
</svg>
